<svg xmlns="http://www.w3.org/2000/svg" width="84" height="25" viewBox="0 0 84 25" fill="none">
  <g clip-path="url(#clip0_33_2835)">
    <path d="M35.1874 19.7781C34.8777 19.7781 34.6237 19.6868 34.4254 19.5042C34.2395 19.3099 34.1468 19.0419 34.1468 18.7016V14.432C34.1468 13.8599 34.0042 13.398 33.7192 13.0451C33.4465 12.6922 33.0253 12.5159 32.4556 12.5159C31.8983 12.5159 31.4703 12.6922 31.1733 13.0451C30.8879 13.398 30.7457 13.8599 30.7457 14.432V18.7016C30.7457 19.0419 30.6462 19.3099 30.448 19.5042C30.2621 19.6868 30.0144 19.7781 29.7047 19.7781C29.395 19.7781 29.141 19.6868 28.9431 19.5042C28.7572 19.3099 28.6641 19.0419 28.6641 18.7016V8.26435C28.6641 7.92402 28.7572 7.66239 28.9427 7.47983C29.141 7.28507 29.395 7.18789 29.7047 7.18789C30.0144 7.18789 30.2621 7.28507 30.448 7.47983C30.6466 7.66239 30.7457 7.92402 30.7457 8.26435V11.7129H30.7645C30.9993 11.3969 31.3154 11.1475 31.7119 10.9649C32.1208 10.7824 32.5918 10.6911 33.1244 10.6911C33.6077 10.6911 34.0349 10.7765 34.4067 10.9468C34.7909 11.105 35.1193 11.3301 35.392 11.622C35.669 11.9215 35.878 12.276 36.0051 12.6619C36.154 13.0514 36.228 13.483 36.228 13.9575V18.7016C36.228 19.0419 36.1289 19.3099 35.9307 19.5042C35.7451 19.6868 35.4971 19.7781 35.1874 19.7781ZM45.1316 7.18789C45.4438 7.18789 45.6938 7.28429 45.8809 7.47747C46.0807 7.65845 46.1806 7.91734 46.1806 8.2553V18.6017C46.1806 18.9396 46.0811 19.2048 45.8809 19.3976C45.6938 19.5786 45.4438 19.6691 45.1316 19.6691C44.8191 19.6691 44.5755 19.5849 44.4011 19.4157C44.2383 19.2469 44.1324 19.0238 44.0826 18.7468H44.0635C43.8513 19.0482 43.5516 19.2953 43.1642 19.4881C42.7773 19.6809 42.2653 19.7777 41.6279 19.7777C40.8787 19.7777 40.2354 19.5849 39.6987 19.1989C39.1613 18.8007 38.7743 18.2582 38.537 17.5708C38.4236 17.2292 38.342 16.8779 38.2934 16.5215C38.2432 16.1478 38.2186 15.7134 38.2186 15.2192C38.2186 14.7247 38.2432 14.2966 38.2934 13.9346C38.3432 13.5609 38.4244 13.2052 38.537 12.8676C38.7743 12.1803 39.1613 11.6436 39.6987 11.2577C40.2354 10.8595 40.8787 10.6608 41.6279 10.6608C42.2649 10.6608 42.7773 10.7631 43.1646 10.9681C43.5643 11.1731 43.8637 11.4143 44.0635 11.692H44.0822V8.25491C44.0822 7.91694 44.1762 7.65766 44.3633 7.47707C44.5631 7.28429 44.8191 7.1875 45.1316 7.1875V7.18789ZM42.3895 12.3026C42.0057 12.3026 41.6757 12.3931 41.3994 12.5741C41.1235 12.7433 40.9193 13.0396 40.7871 13.4621C40.6677 13.8245 40.6072 14.356 40.6072 15.0567C40.6072 15.7571 40.6673 16.289 40.7871 16.6514C40.9193 17.0739 41.1235 17.3761 41.3994 17.5571C41.6757 17.7263 42.0057 17.8108 42.3895 17.8108C42.7741 17.8108 43.1041 17.7263 43.38 17.5571C43.6682 17.3761 43.878 17.0739 44.0102 16.6514C44.1304 16.289 44.1901 15.7575 44.1901 15.0567C44.1901 14.3564 44.1304 13.8245 44.0102 13.4621C43.878 13.0396 43.6678 12.7437 43.38 12.5745C43.1041 12.3935 42.7741 12.3026 42.3895 12.3026Z" fill="#2D2D2D"/>
    <path d="M48.5703 11.9111C48.5703 11.5719 48.6639 11.3115 48.8514 11.1297C49.0504 10.9357 49.3064 10.8389 49.6185 10.8389C49.9302 10.8389 50.1671 10.9239 50.3295 11.0935C50.5039 11.2627 50.6162 11.481 50.6663 11.7474H50.685C50.8845 11.4688 51.1779 11.2328 51.5649 11.0392C51.9642 10.833 52.463 10.7299 53.0617 10.7299C53.5984 10.7299 54.0725 10.833 54.4841 11.0388C54.9028 11.2282 55.2641 11.5225 55.532 11.8926H55.5507C55.8957 11.5322 56.3089 11.2421 56.7669 11.0388C57.2287 10.833 57.784 10.7299 58.4325 10.7299C58.9568 10.7299 59.4183 10.8145 59.818 10.9845C60.2292 11.1419 60.5724 11.3661 60.847 11.6565C61.1356 11.9499 61.3531 12.3041 61.4832 12.6924C61.6329 13.08 61.7078 13.51 61.7078 13.9829V18.707C61.7078 19.0461 61.6082 19.3129 61.4084 19.5065C61.2213 19.6882 60.9717 19.7791 60.6599 19.7791C60.3478 19.7791 60.0922 19.6886 59.8924 19.5065C59.7053 19.3129 59.6117 19.0461 59.6117 18.707V14.4551C59.6117 13.8858 59.4684 13.4254 59.181 13.0741C58.8943 12.7227 58.47 12.5469 57.9086 12.5469C57.3593 12.5469 56.9353 12.7227 56.6363 13.0741C56.3369 13.4254 56.1868 13.8858 56.1868 14.4551V18.707C56.1868 19.0461 56.0873 19.3129 55.8875 19.5065C55.7004 19.6882 55.4511 19.7791 55.139 19.7791C54.8269 19.7791 54.5713 19.6886 54.3719 19.5065C54.1848 19.3129 54.0912 19.0461 54.0912 18.707V14.4551C54.0912 13.8858 53.9479 13.4254 53.6605 13.0741C53.3738 12.7227 52.9495 12.5469 52.3881 12.5469C51.8387 12.5469 51.4148 12.7227 51.1158 13.0741C50.816 13.4254 50.6663 13.8858 50.6663 14.4551V18.707C50.6663 19.0461 50.5668 19.3129 50.367 19.5065C50.1798 19.6882 49.9302 19.7791 49.6185 19.7791C49.3064 19.7791 49.0508 19.6886 48.8514 19.5065C48.6643 19.3129 48.5703 19.0461 48.5703 18.707V11.9111ZM71.4963 18.1452C71.6054 18.3486 71.6604 18.5465 71.6604 18.7377C71.6604 19.0131 71.5632 19.2405 71.3685 19.4199C71.1743 19.5875 70.9314 19.6717 70.64 19.6717C70.2634 19.6717 69.978 19.534 69.7837 19.2586L69.4923 18.8274H69.474C69.2192 19.1264 68.8728 19.3601 68.4353 19.5277C67.9982 19.6953 67.4819 19.7791 66.8867 19.7791C65.8421 19.7791 65.0467 19.5517 64.5001 19.0969C63.9654 18.6299 63.6983 17.9835 63.6983 17.1576C63.6983 16.224 64.0084 15.5299 64.6274 15.0751C65.2469 14.6203 66.1032 14.3929 67.1964 14.3929H68.9998C69.0731 14.3929 69.1097 14.3567 69.1097 14.2851V14.0695C69.1097 13.5667 68.9517 13.1779 68.636 12.9025C68.3322 12.6153 67.8342 12.4717 67.1419 12.4717C66.8262 12.4717 66.5284 12.5071 66.2489 12.5791C65.9699 12.6511 65.733 12.7349 65.5383 12.8309C65.3564 12.9025 65.18 12.9383 65.01 12.9383C64.7672 12.9383 64.5669 12.8667 64.4089 12.7227C64.2512 12.5673 64.172 12.3639 64.172 12.1125C64.172 11.9689 64.2086 11.8253 64.2815 11.6817C64.3663 11.5381 64.5001 11.4181 64.6824 11.3225C64.9615 11.1549 65.3261 11.0172 65.7756 10.9094C66.225 10.7898 66.7533 10.7299 67.36 10.7299C68.6117 10.7299 69.5345 11.0231 70.1296 11.6097C70.7372 12.1841 71.0409 13.0103 71.0409 14.0876V16.8165C71.0409 17.0439 71.0529 17.2178 71.0771 17.3374C71.1138 17.4448 71.1623 17.5585 71.2228 17.6785L71.4963 18.1452ZM67.2724 18.2054C67.8887 18.2054 68.3728 18.0858 68.7247 17.8465C69.0894 17.6073 69.2717 17.2485 69.2717 16.7701V15.958C69.2717 15.8825 69.2339 15.8447 69.1583 15.8447H67.6495C66.9456 15.8447 66.4432 15.9454 66.141 16.1469C65.8397 16.3483 65.6888 16.6568 65.6888 17.0722C65.6888 17.8277 66.2167 18.2054 67.2724 18.2054ZM76.0395 19.7791C75.1474 19.7791 74.5255 19.5604 74.1764 19.1233C73.8252 18.6854 73.6509 18.048 73.6509 17.2099V8.26385C73.6509 7.92392 73.7412 7.66267 73.922 7.48051C74.1151 7.28614 74.3623 7.18896 74.6641 7.18896C74.9535 7.18896 75.1951 7.28614 75.3878 7.48051C75.5809 7.66267 75.6772 7.92392 75.6772 8.26385V17.0463C75.6772 17.3618 75.7318 17.5865 75.8405 17.7202C75.9491 17.8418 76.1299 17.9209 76.3831 17.9571C76.6848 17.9937 76.9022 18.0968 77.0348 18.2667C77.1673 18.4249 77.2338 18.6193 77.2338 18.8498C77.2338 19.1174 77.1494 19.3416 76.9802 19.5242C76.8114 19.6941 76.5463 19.7791 76.184 19.7791H76.0395ZM81.613 19.7791C80.7204 19.7791 80.099 19.5604 79.749 19.1233C79.3995 18.6854 79.2243 18.048 79.2243 17.2099V8.26385C79.2243 7.92392 79.3147 7.66267 79.4954 7.48051C79.6885 7.28614 79.9357 7.18896 80.2375 7.18896C80.5273 7.18896 80.7686 7.28614 80.9613 7.48051C81.1543 7.66267 81.2511 7.92392 81.2511 8.26385V17.0463C81.2511 17.3618 81.3052 17.5865 81.4143 17.7202C81.5226 17.8418 81.7033 17.9209 81.9569 17.9571C82.2583 17.9937 82.4757 18.0968 82.6082 18.2667C82.7408 18.4249 82.8073 18.6193 82.8073 18.8498C82.8073 19.1174 82.7229 19.3416 82.5537 19.5242C82.3853 19.6941 82.1198 19.7791 81.7575 19.7791H81.613Z" fill="#2BA8E0"/>
    <path d="M16.777 17.4503C16.8395 17.3992 16.9283 17.411 16.9777 17.4759L16.9817 17.481L17.7938 18.6417L17.8388 18.6668L17.889 18.6952C18.1439 18.8399 18.3931 18.9945 18.6358 19.1586C18.8157 19.2818 18.975 19.4014 19.1083 19.5159C19.2811 19.6642 19.4081 19.8015 19.4834 19.9306C19.5041 19.9661 19.5108 20.0079 19.5023 20.0481C19.4938 20.0882 19.4706 20.1238 19.4372 20.1482C19.3691 20.1946 19.2787 20.1725 19.2357 20.0986C19.1816 20.0057 19.0757 19.8912 18.9264 19.763C18.7836 19.6426 18.6344 19.5299 18.4793 19.4254C18.2894 19.2962 18.095 19.1735 17.8965 19.0575L17.8408 19.0249L17.7532 18.9749L17.6947 18.9419L17.6326 18.9076C17.6143 18.8978 17.5983 18.8842 17.5856 18.8679L17.5812 18.8616L16.7484 17.6714C16.7249 17.6375 16.7148 17.5962 16.7201 17.5555C16.7254 17.5147 16.7457 17.4773 16.777 17.4503Z" fill="#2A2A2A"/>
    <path d="M20.1096 18.9927C20.2092 18.9868 20.2959 19.0419 20.3039 19.1163C20.3119 19.1887 20.2422 19.2528 20.1467 19.2614L20.1399 19.2618L18.276 19.3779L18.2788 20.8242C18.2788 20.897 18.2023 20.9568 18.106 20.9595H18.0992C18.0021 20.9595 17.9228 20.9021 17.9193 20.8297V20.8246L17.9161 19.254C17.9161 19.1855 17.9838 19.1281 18.0737 19.1198L18.0809 19.1194L20.11 18.9923L20.1096 18.9927ZM8.84249 17.4909C8.88668 17.4237 8.98859 17.3989 9.0702 17.4359C9.14982 17.4713 9.18008 17.5527 9.14027 17.6192L9.13748 17.6243L8.3783 18.7783C8.36689 18.7956 8.35198 18.8103 8.33451 18.8216L8.32575 18.8267L8.28355 18.8515L8.25488 18.8684L8.20034 18.901C7.95299 19.0514 7.71081 19.2099 7.4742 19.3763C7.34124 19.4708 7.22061 19.562 7.11432 19.6486L7.08724 19.671C6.8862 19.8382 6.74965 19.9818 6.69272 20.0896C6.6553 20.1597 6.55657 20.1919 6.47138 20.1609C6.38658 20.1302 6.34797 20.0479 6.38539 19.9775C6.4658 19.8256 6.635 19.6502 6.87824 19.4511C6.99051 19.359 7.1171 19.2634 7.25525 19.165C7.44793 19.0285 7.65335 18.8928 7.85917 18.7645L7.90177 18.7382L8.0212 18.665L8.07852 18.6308L8.10241 18.617L8.84249 17.4909Z" fill="#2A2A2A"/>
    <path d="M8.31896 18.9915C8.39938 18.9871 8.47064 19.0379 8.48577 19.1099L8.48656 19.1158L8.75807 20.7919C8.77081 20.8713 8.7107 20.9453 8.62391 20.9571C8.53871 20.9689 8.45949 20.9166 8.44397 20.8399L8.44277 20.8344L8.19316 19.2913L6.54103 19.3904C6.45504 19.3955 6.38059 19.3373 6.37183 19.2598L6.37144 19.2543C6.36586 19.176 6.42916 19.1079 6.51396 19.1001L6.51993 19.0997L8.31896 18.9915Z" fill="#2A2A2A"/>
    <path d="M10.8287 2.0857L12.2049 4.48294C12.5756 5.12898 13.6668 4.79534 13.5239 4.07966L12.9904 1.41527C12.9136 1.03088 12.4725 0.80032 12.0628 0.929763L11.22 1.19809C10.8172 1.32557 10.6328 1.74498 10.8287 2.08609V2.0857Z" fill="#00AE90"/>
    <path d="M13.97 1.34835L13.169 3.98206C12.9528 4.69222 13.8792 5.15609 14.2884 4.54311L15.8124 2.26035C16.0321 1.93104 15.9135 1.4774 15.5624 1.30744L14.8398 0.955699C14.4935 0.788093 14.0842 0.973011 13.97 1.34835Z" fill="#00AE90"/>
    <path d="M12.9385 19.7786C17.4458 19.7786 21.0996 15.9913 21.0996 11.3196C21.0996 6.64787 17.4458 2.8606 12.9385 2.8606C8.43115 2.8606 4.77734 6.64787 4.77734 11.3196C4.77734 15.9913 8.43115 19.7786 12.9385 19.7786Z" fill="#00AE90"/>
    <path d="M10.1495 10.7299C12.0182 10.7299 13.5334 9.14434 13.5334 7.18893C13.5334 5.23352 12.0182 3.64795 10.1495 3.64795C8.28081 3.64795 6.76562 5.23352 6.76562 7.18893C6.76562 9.14434 8.28081 10.7299 10.1495 10.7299ZM16.9173 10.7299C18.786 10.7299 20.3012 9.14434 20.3012 7.18893C20.3012 5.23352 18.786 3.64795 16.9173 3.64795C15.0486 3.64795 13.5334 5.23352 13.5334 7.18893C13.5334 9.14434 15.0486 10.7299 16.9173 10.7299Z" fill="#F5F7F5"/>
    <path d="M10.7487 8.76253C11.171 8.76253 11.576 8.59672 11.8747 8.30158C12.1733 8.00644 12.3411 7.60615 12.3411 7.18876C12.3411 6.77137 12.1733 6.37108 11.8747 6.07594C11.576 5.7808 11.171 5.61499 10.7487 5.61499C10.3263 5.61499 9.92129 5.7808 9.62266 6.07594C9.32402 6.37108 9.15625 6.77137 9.15625 7.18876C9.15625 7.60615 9.32402 8.00644 9.62266 8.30158C9.92129 8.59672 10.3263 8.76253 10.7487 8.76253ZM15.924 8.76253C16.3464 8.76253 16.7514 8.59672 17.05 8.30158C17.3487 8.00644 17.5164 7.60615 17.5164 7.18876C17.5164 6.77137 17.3487 6.37108 17.05 6.07594C16.7514 5.7808 16.3464 5.61499 15.924 5.61499C15.5017 5.61499 15.0966 5.7808 14.798 6.07594C14.4994 6.37108 14.3316 6.77137 14.3316 7.18876C14.3316 7.60615 14.4994 8.00644 14.798 8.30158C15.0966 8.59672 15.5017 8.76253 15.924 8.76253Z" fill="#2A2A2A"/>
    <path opacity="0.2" d="M15.8861 13.8774C15.2188 13.8774 14.6081 14.0974 14.0699 14.5306C13.7879 14.7608 13.5406 15.0297 13.3358 15.3292C13.1307 15.0298 12.8834 14.7609 12.6013 14.5306C12.0635 14.0974 11.4528 13.8774 10.7852 13.8774C9.8926 13.8774 9.07171 14.2496 8.47296 14.9256C7.91243 15.559 7.59395 16.4136 7.5625 17.3441C9.04902 18.8502 11.0778 19.7791 13.3155 19.7791C15.5728 19.7791 17.617 18.8344 19.1075 17.3055C19.0685 16.39 18.7512 15.5508 18.1987 14.9256C17.5995 14.25 16.7786 13.8774 15.8861 13.8774Z" fill="#F5F7F5"/>
    <path d="M13.6751 6.87618L15.5048 9.80811C15.5196 9.83148 15.5275 9.8584 15.5279 9.88593C15.5282 9.91347 15.5209 9.94058 15.5068 9.96431L13.7098 13.0044C13.6433 13.1174 13.4669 13.1177 13.3992 13.006L11.5688 9.98201C11.5543 9.95843 11.5467 9.93137 11.5469 9.9038C11.547 9.87624 11.5549 9.84925 11.5696 9.82581L13.367 6.87736C13.3835 6.85188 13.4063 6.8309 13.4331 6.81633C13.46 6.80176 13.4901 6.79406 13.5207 6.79395C13.5514 6.79383 13.5815 6.80129 13.6085 6.81566C13.6355 6.83002 13.6584 6.85082 13.6751 6.87618Z" fill="#F6C945"/>
    <path d="M13.4304 8.05855L14.7099 10.215C14.7242 10.2392 14.732 10.2666 14.7323 10.2946C14.7326 10.3226 14.7256 10.3502 14.7119 10.3747L13.4551 12.6095C13.4395 12.636 13.4171 12.658 13.3902 12.6732C13.3632 12.6883 13.3327 12.6962 13.3017 12.6958C13.2707 12.6955 13.2403 12.6871 13.2137 12.6713C13.187 12.6556 13.1651 12.6332 13.1501 12.6064L11.9642 10.3704C11.9517 10.3472 11.9452 10.3213 11.9453 10.295C11.9454 10.2687 11.952 10.2429 11.9646 10.2197L13.1278 8.06445C13.1427 8.03802 13.1644 8.0159 13.1906 8.00032C13.2169 7.98473 13.2468 7.97622 13.2774 7.97562C13.308 7.97502 13.3382 7.98237 13.3651 7.99692C13.3919 8.01147 13.4144 8.03272 13.4304 8.05855Z" fill="#2A2A2A"/>
    <path d="M14.732 10.7397C14.732 10.7397 13.3737 9.82498 11.9453 10.7508L12.8012 12.1014C12.8012 12.1014 13.1782 12.559 13.8244 12.0975L14.732 10.7397Z" fill="#DC4746"/>
    <path d="M16.6798 3.25672C17.294 3.23075 17.8804 3.42393 18.4179 3.76111C18.6276 3.89263 18.8242 4.04346 19.0051 4.2116L19.0162 4.22223C19.0385 4.24387 19.0544 4.2596 19.0632 4.26905C19.1229 4.3316 19.1221 4.43232 19.0612 4.4941C19.0475 4.50825 19.0311 4.51957 19.0129 4.52739C18.9947 4.5352 18.9751 4.53936 18.9553 4.53962C18.9355 4.53987 18.9158 4.53622 18.8974 4.52888C18.879 4.52154 18.8623 4.51065 18.8482 4.49685L18.8355 4.48347C18.7893 4.43792 18.7415 4.39395 18.6922 4.35167C18.5557 4.23492 18.4107 4.1284 18.2582 4.03298C17.7686 3.7261 17.2391 3.55141 16.6925 3.57462C15.9839 3.60491 15.292 3.96688 14.6299 4.73882L14.6001 4.77344C14.5872 4.78909 14.5713 4.80197 14.5532 4.8113C14.5352 4.82062 14.5153 4.8262 14.495 4.82767C14.4747 4.82915 14.4543 4.82649 14.435 4.81987C14.4158 4.81325 14.3981 4.8028 14.3831 4.78918C14.3521 4.7607 14.3332 4.72158 14.3304 4.67982C14.3276 4.63806 14.341 4.59681 14.368 4.56452L14.3994 4.52754C15.1152 3.69305 15.8847 3.29055 16.6798 3.25672ZM8.25189 3.76111C8.78933 3.42393 9.37534 3.23075 9.99001 3.25672C10.785 3.29055 11.5546 3.69305 12.2704 4.52754L12.3018 4.56452C12.3286 4.59678 12.342 4.63795 12.3392 4.67962C12.3364 4.72129 12.3176 4.76033 12.2867 4.78878C12.2717 4.80243 12.254 4.81291 12.2348 4.81956C12.2156 4.82621 12.1952 4.8289 12.1748 4.82747C12.1545 4.82603 12.1347 4.82049 12.1166 4.8112C12.0985 4.80191 12.0826 4.78906 12.0697 4.77344L12.0399 4.73882C11.3778 3.96688 10.6855 3.60491 9.97767 3.57462C9.43068 3.55141 8.9012 3.7261 8.41153 4.03298C8.25907 4.1284 8.11402 4.23492 7.9776 4.35167L7.95212 4.3741C7.92266 4.39967 7.89638 4.42367 7.87289 4.4461L7.86294 4.45554C7.85491 4.4632 7.84694 4.47094 7.83906 4.47875L7.82632 4.49173C7.81252 4.5066 7.79578 4.51851 7.77714 4.52672C7.75851 4.53494 7.73836 4.5393 7.71795 4.53952C7.69754 4.53974 7.67731 4.53582 7.65849 4.52801C7.63967 4.5202 7.62268 4.50866 7.60855 4.4941C7.57934 4.46386 7.56288 4.42376 7.56251 4.38196C7.56214 4.34016 7.57789 4.29978 7.60656 4.26905L7.62129 4.2541C7.67289 4.20322 7.72627 4.15414 7.78133 4.10695C7.91868 3.98891 8.07593 3.87088 8.25189 3.76072V3.76111Z" fill="#2A2A2A"/>
    <path d="M21.23 7.43099C21.23 7.43099 21.8113 4.71781 22.6994 4.95348C22.6994 4.95348 23.2054 5.11243 23.0028 5.83283C23.0028 5.83283 23.9284 3.5485 24.6708 3.65158C24.6708 3.65158 25.2799 3.81761 25.0594 4.80594C25.0594 4.80594 26.2286 4.6942 25.5634 6.55676C25.5634 6.55676 26.6012 6.48476 26.1705 7.9224C26.1705 7.9224 25.7354 12.602 20.3036 15.0579L21.23 7.43099ZM5.44359 7.43099C5.44359 7.43099 4.86236 4.71781 3.97419 4.95348C3.97419 4.95348 3.4678 5.11243 3.67083 5.83283C3.67083 5.83283 2.74524 3.5485 2.00278 3.65158C2.00278 3.65158 1.39368 3.81761 1.61423 4.80594C1.61423 4.80594 0.444993 4.6942 1.11023 6.55676C1.11023 6.55676 0.0723673 6.48476 0.503116 7.9224C0.503116 7.9224 0.938244 12.602 6.36998 15.0579L5.44359 7.43099Z" fill="#00AE90"/>
    <path opacity="0.1" d="M19.9941 23.6771H6.05645C5.42028 23.6771 4.8494 23.1672 4.77734 22.533L4.80641 22.9626C4.87846 23.5894 5.44934 24.1067 6.07078 24.1067H19.8424C20.4491 24.1067 20.9985 23.6259 21.0996 23.0287C20.8751 23.4147 20.4491 23.6771 19.9941 23.6771Z" fill="#231F20"/>
    <path d="M21.2465 13.4839H4.6284C3.98307 13.4839 3.5157 13.984 3.58975 14.6064L4.56908 22.9843C4.64233 23.5993 5.22834 24.1068 5.86651 24.1068H20.0008C20.6461 24.1068 21.2317 23.6064 21.2986 22.9843L22.2851 14.6064C22.3592 13.9836 21.8918 13.4839 21.2461 13.4839H21.2465ZM7.55765 22.7982H7.31282C6.99394 22.7982 6.70451 22.5484 6.67466 22.2407L6.10417 16.6645C6.07432 16.3572 6.31159 16.107 6.63047 16.107H6.8753C7.19418 16.107 7.48361 16.3572 7.51307 16.6645L8.08395 22.2407C8.11341 22.5484 7.87614 22.7982 7.55765 22.7982ZM10.3086 22.7982H10.0637C9.74484 22.7982 9.47015 22.5484 9.45542 22.2407L9.17396 16.672C9.15923 16.3647 9.40366 16.1144 9.73011 16.1144H9.97494C10.2938 16.1144 10.5681 16.3647 10.5828 16.672L10.8647 22.2407C10.8798 22.5409 10.6274 22.7982 10.3086 22.7982ZM13.6383 22.2337C13.6383 22.5409 13.3787 22.7982 13.0523 22.7982H12.8075C12.4886 22.7982 12.2214 22.5484 12.2214 22.2337V16.6653C12.2214 16.3576 12.481 16.1003 12.8075 16.1003H13.0523C13.3712 16.1003 13.6383 16.3505 13.6383 16.6653V22.2337ZM16.4191 22.2337C16.4043 22.5409 16.1296 22.7912 15.8108 22.7912H15.5659C15.247 22.7912 14.995 22.5409 15.0098 22.2337L15.2912 16.6645C15.306 16.3572 15.5806 16.107 15.8995 16.107H16.1444C16.4632 16.107 16.7152 16.3572 16.7005 16.6645L16.4191 22.2337ZM19.7639 16.6653L19.193 22.2411C19.1632 22.5488 18.8742 22.799 18.5553 22.799H18.318C17.9987 22.799 17.7615 22.5488 17.7913 22.2411L18.3622 16.6653C18.3921 16.3576 18.6807 16.1074 19 16.1074H19.2448C19.5633 16.1003 19.8006 16.3576 19.7639 16.6653Z" fill="#2BA8E0"/>
    <path opacity="0.1" d="M3.58831 14.3074L3.69182 15.0577H22.1814L22.2849 14.3074C22.3366 13.9533 22.1368 13.6483 21.8103 13.4839H4.06285C3.73641 13.6421 3.54412 13.9537 3.58831 14.3074Z" fill="#231F20"/>
    <path d="M24.136 14.687C24.1057 14.8877 23.8653 15.0577 23.6172 15.0577H3.84102C3.58584 15.0577 3.35255 14.8936 3.32229 14.687L3.18694 13.8545C3.15708 13.6539 3.33025 13.4839 3.58504 13.4839H23.8804C24.1352 13.4839 24.3159 13.648 24.2785 13.8545L24.136 14.687Z" fill="#2BA8E0"/>
    <path d="M4.37824 21.094L4.88702 21.3529L8.35928 14.1363L7.85051 13.8774L4.37824 21.094ZM3.58999 21.2112C3.58267 21.1864 3.58037 21.1604 3.58321 21.1347C3.58605 21.1091 3.59398 21.0842 3.60655 21.0615C3.63194 21.0158 3.67467 20.9819 3.72535 20.9673C3.77603 20.9527 3.83051 20.9586 3.87679 20.9836C3.92308 21.0087 3.95739 21.051 3.97217 21.101C3.98696 21.1511 3.981 21.205 3.95561 21.2507C3.93023 21.2965 3.8875 21.3304 3.83682 21.345C3.78614 21.3596 3.73166 21.3537 3.68537 21.3286C3.63908 21.3035 3.60478 21.2613 3.58999 21.2112Z" fill="#B9B9BA"/>
    <path d="M4.38807 21.2126C4.38015 21.188 4.37732 21.162 4.37975 21.1363C4.38219 21.1105 4.38984 21.0855 4.40224 21.0628C4.41465 21.04 4.43155 21.02 4.45196 21.0038C4.47237 20.9876 4.49586 20.9757 4.52103 20.9687C4.54596 20.9609 4.57222 20.9581 4.59824 20.9606C4.62426 20.963 4.64953 20.9706 4.67254 20.9828C4.69556 20.9951 4.71585 21.0118 4.73222 21.0319C4.74859 21.052 4.76071 21.0752 4.76786 21.1001C4.77572 21.1247 4.77851 21.1507 4.77604 21.1764C4.77358 21.2021 4.76593 21.2271 4.75353 21.2498C4.74113 21.2726 4.72425 21.2926 4.70387 21.3088C4.68349 21.325 4.66003 21.3369 4.63489 21.344C4.60996 21.3518 4.5837 21.3546 4.55766 21.3522C4.53161 21.3498 4.50633 21.3423 4.4833 21.33C4.46027 21.3177 4.43997 21.301 4.42361 21.2809C4.40725 21.2607 4.39517 21.2375 4.38807 21.2126Z" fill="#5E5E5E"/>
    <path d="M7.57048 14.1289C7.56316 14.1041 7.56084 14.0782 7.56366 14.0526C7.56649 14.0269 7.57439 14.0021 7.58692 13.9795C7.59945 13.9569 7.61637 13.9369 7.6367 13.9208C7.65704 13.9046 7.68039 13.8926 7.70544 13.8853C7.73048 13.8781 7.75672 13.8758 7.78265 13.8786C7.80859 13.8814 7.83372 13.8892 7.8566 13.9016C7.90281 13.9266 7.93708 13.9687 7.95186 14.0187C7.96664 14.0687 7.96073 14.1224 7.93542 14.1681C7.91011 14.2138 7.86748 14.2476 7.8169 14.2622C7.76633 14.2769 7.71195 14.271 7.66574 14.246C7.61953 14.221 7.58526 14.1789 7.57048 14.1289Z" fill="white"/>
    <path d="M7.5716 14.1319C7.56372 14.1072 7.56091 14.0811 7.56336 14.0553C7.5658 14.0295 7.57344 14.0044 7.58582 13.9815C7.59821 13.9586 7.61509 13.9384 7.63548 13.9221C7.65587 13.9058 7.67936 13.8936 7.70457 13.8864C7.72957 13.8786 7.75591 13.8758 7.78202 13.8783C7.80812 13.8808 7.83345 13.8885 7.85649 13.9008C7.87953 13.9132 7.89981 13.9301 7.91612 13.9504C7.93242 13.9707 7.94442 13.994 7.95139 14.019C7.95927 14.0437 7.96208 14.0698 7.95963 14.0956C7.95719 14.1214 7.94955 14.1465 7.93717 14.1694C7.92478 14.1923 7.9079 14.2125 7.8875 14.2288C7.86711 14.2451 7.84363 14.2573 7.81842 14.2645C7.71133 14.2913 7.59787 14.2314 7.5716 14.1319Z" fill="#5E5E5E"/>
    <path d="M22.2942 21.129L21.8352 21.3529L19.1094 14.1013L19.5748 13.8774L22.2942 21.129Z" fill="#B9B9BA"/>
    <path d="M22.2847 21.2214C22.2938 21.1971 22.2978 21.1712 22.2966 21.1453C22.2954 21.1194 22.289 21.094 22.2776 21.0706C22.2663 21.0472 22.2504 21.0263 22.2307 21.009C22.2111 20.9918 22.1881 20.9787 22.1633 20.9704C22.1387 20.9615 22.1126 20.9575 22.0864 20.9587C22.0602 20.9599 22.0346 20.9664 22.011 20.9776C21.9874 20.9888 21.9664 21.0047 21.9491 21.0241C21.9318 21.0436 21.9187 21.0662 21.9105 21.0908C21.9014 21.1151 21.8974 21.141 21.8987 21.1669C21.8999 21.1927 21.9064 21.2181 21.9177 21.2414C21.929 21.2648 21.9449 21.2857 21.9645 21.3029C21.9842 21.32 22.0071 21.3332 22.0319 21.3414C22.0565 21.35 22.0825 21.3537 22.1085 21.3523C22.1345 21.351 22.16 21.3445 22.1835 21.3334C22.207 21.3222 22.228 21.3066 22.2454 21.2874C22.2628 21.2682 22.2761 21.2458 22.2847 21.2214Z" fill="#B9B9BA"/>
    <path d="M22.2862 21.2209C22.3019 21.1715 22.298 21.1181 22.2754 21.0715C22.2528 21.0248 22.2131 20.9884 22.1643 20.9695C22.1143 20.9539 22.0601 20.9575 22.0126 20.9796C21.9651 21.0017 21.9277 21.0406 21.908 21.0887C21.8922 21.1381 21.8961 21.1915 21.9187 21.2382C21.9413 21.2848 21.981 21.3213 22.0298 21.3401C22.1309 21.3795 22.2455 21.3264 22.2862 21.2209Z" fill="#5E5E5E"/>
    <path d="M19.4957 14.1383C19.5048 14.114 19.5088 14.0882 19.5076 14.0624C19.5064 14.0365 19.4999 14.0112 19.4886 13.9879C19.4773 13.9646 19.4613 13.9438 19.4417 13.9267C19.422 13.9096 19.3991 13.8966 19.3743 13.8884C19.3498 13.8795 19.3236 13.8755 19.2975 13.8767C19.2714 13.8779 19.2457 13.8843 19.2221 13.8955C19.1986 13.9067 19.1775 13.9224 19.1602 13.9418C19.1429 13.9613 19.1297 13.9839 19.1215 14.0084C19.1124 14.0327 19.1084 14.0585 19.1096 14.0843C19.1108 14.1102 19.1173 14.1355 19.1286 14.1588C19.1399 14.1821 19.1559 14.2029 19.1755 14.22C19.1952 14.2371 19.2181 14.2501 19.2429 14.2583C19.2675 14.2668 19.2935 14.2705 19.3195 14.2691C19.3455 14.2676 19.371 14.2612 19.3945 14.25C19.4179 14.2389 19.439 14.2233 19.4563 14.2041C19.4737 14.1849 19.4871 14.1626 19.4957 14.1383Z" fill="white"/>
    <path d="M19.4972 14.1389C19.5129 14.0895 19.509 14.0361 19.4864 13.9894C19.4638 13.9428 19.4241 13.9063 19.3754 13.8875C19.3253 13.8719 19.2711 13.8755 19.2236 13.8976C19.1761 13.9197 19.1388 13.9586 19.119 14.0067C19.1032 14.056 19.107 14.1095 19.1296 14.1562C19.1522 14.2029 19.192 14.2393 19.2408 14.2581C19.3483 14.2974 19.4629 14.2447 19.4972 14.1389Z" fill="#5E5E5E"/>
  </g>
  <defs>
    <clipPath id="clip0_33_2835">
      <rect width="84" height="24" fill="white" transform="translate(0 0.5)"/>
    </clipPath>
  </defs>
</svg>