<svg width="87" height="24" viewBox="0 0 87 24" fill="none" xmlns="http://www.w3.org/2000/svg">
<rect width="87" height="24" rx="12" fill="white"/>
<path d="M15.6494 17.1262H16.4204V18.9969H15.8697L15.6494 17.1262Z" fill="#F2AF13"/>
<path fill-rule="evenodd" clip-rule="evenodd" d="M17.0441 19.1406L15.7959 19.1406C15.7959 18.8029 16.0753 18.5291 16.42 18.5291C16.7647 18.5291 17.0441 18.8029 17.0441 19.1406Z" fill="url(#paint0_linear_112_2004)"/>
<path fill-rule="evenodd" clip-rule="evenodd" d="M16.09 19.1406L14.8418 19.1406C14.8418 18.8029 15.1212 18.5291 15.4659 18.5291C15.8106 18.5291 16.09 18.8029 16.09 19.1406Z" fill="url(#paint1_linear_112_2004)"/>
<path fill-rule="evenodd" clip-rule="evenodd" d="M16.6775 19.1406C16.6775 18.7433 16.3487 18.4211 15.9432 18.4211C15.5377 18.4211 15.209 18.7433 15.209 19.1406H16.6775Z" fill="url(#paint2_linear_112_2004)"/>
<path d="M19.7979 17.1262H19.0269V18.9969H19.5776L19.7979 17.1262Z" fill="#F1AE13"/>
<path fill-rule="evenodd" clip-rule="evenodd" d="M20.6056 19.1406L19.3574 19.1406C19.3574 18.8029 19.6368 18.5291 19.9815 18.5291C20.3262 18.5291 20.6056 18.8029 20.6056 19.1406Z" fill="url(#paint3_linear_112_2004)"/>
<path fill-rule="evenodd" clip-rule="evenodd" d="M19.6515 19.1406L18.4033 19.1406C18.4033 18.8029 18.6827 18.5291 19.0274 18.5291C19.3721 18.5291 19.6515 18.8029 19.6515 19.1406Z" fill="url(#paint4_linear_112_2004)"/>
<path fill-rule="evenodd" clip-rule="evenodd" d="M20.239 19.1406C20.239 18.7433 19.9103 18.4211 19.5048 18.4211C19.0992 18.4211 18.7705 18.7433 18.7705 19.1406H20.239Z" fill="url(#paint5_linear_112_2004)"/>
<g filter="url(#filter0_ii_112_2004)">
<path d="M23.2954 8.70294C23.2954 8.70294 23.7222 6.7508 24.3743 6.92036C24.3743 6.92036 24.7459 7.03473 24.5971 7.55306C24.5971 7.55306 25.2767 5.90947 25.8218 5.98364C25.8218 5.98364 26.2691 6.1031 26.1071 6.81421C26.1071 6.81421 26.9656 6.73381 26.4772 8.07393C26.4772 8.07393 27.2392 8.02213 26.923 9.05651C26.923 9.05651 26.6035 12.4235 22.6152 14.1905L23.2954 8.70294Z" fill="url(#paint6_linear_112_2004)"/>
</g>
<g opacity="0.8" filter="url(#filter1_f_112_2004)">
<path d="M23.217 9.85425C23.5257 10.4338 23.9574 12.5618 22.9561 14.2393L23.217 9.85425Z" fill="#089066"/>
</g>
<g filter="url(#filter2_ii_112_2004)">
<path d="M11.7044 8.70294C11.7044 8.70294 11.2776 6.7508 10.6255 6.92036C10.6255 6.92036 10.2537 7.03473 10.4027 7.55306C10.4027 7.55306 9.72313 5.90947 9.17798 5.98364C9.17798 5.98364 8.73075 6.1031 8.89269 6.81421C8.89269 6.81421 8.03418 6.73381 8.52263 8.07393C8.52263 8.07393 7.76058 8.02213 8.07686 9.05651C8.07686 9.05651 8.39635 12.4235 12.3846 14.1905L11.7044 8.70294Z" fill="url(#paint7_linear_112_2004)"/>
</g>
<g filter="url(#filter3_f_112_2004)">
<path d="M11.8709 9.59351C11.5621 10.1731 11.1304 12.3011 12.1318 13.9785L11.8709 9.59351Z" fill="#089066"/>
</g>
<path d="M15.6574 4.85702L16.6679 6.58185C16.94 7.04667 17.7412 6.80662 17.6363 6.29169L17.2446 4.37465C17.1882 4.09807 16.8643 3.93219 16.5635 4.02532L15.9447 4.21838C15.6489 4.3101 15.5136 4.61187 15.6574 4.8573V4.85702Z" fill="url(#paint8_linear_112_2004)"/>
<path d="M17.9653 4.3265L17.3772 6.22146C17.2185 6.73243 17.8987 7.06619 18.1992 6.62514L19.3181 4.98269C19.4795 4.74575 19.3924 4.41935 19.1345 4.29706L18.604 4.04398C18.3497 3.92339 18.0492 4.05644 17.9653 4.3265Z" fill="url(#paint9_linear_112_2004)"/>
<path d="M17.4972 17.5869C20.8067 17.5869 23.4895 14.8619 23.4895 11.5006C23.4895 8.13927 20.8067 5.41431 17.4972 5.41431C14.1877 5.41431 11.5049 8.13927 11.5049 11.5006C11.5049 14.8619 14.1877 17.5869 17.4972 17.5869Z" fill="url(#paint10_radial_112_2004)"/>
<path d="M17.5001 17.5869C20.8096 17.5869 23.4924 14.8619 23.4924 11.5006C23.4924 8.13924 20.8096 12.3524 17.5001 12.3524C14.1906 12.3524 11.5078 8.13924 11.5078 11.5006C11.5078 14.8619 14.1906 17.5869 17.5001 17.5869Z" fill="url(#paint11_linear_112_2004)"/>
<g filter="url(#filter4_d_112_2004)">
<path d="M15.0129 11.511C16.385 11.511 17.4975 10.3702 17.4975 8.96328C17.4975 7.55636 16.385 6.41553 15.0129 6.41553C13.6408 6.41553 12.5283 7.55636 12.5283 8.96328C12.5283 10.3702 13.6408 11.511 15.0129 11.511ZM19.9821 11.511C21.3542 11.511 22.4668 10.3702 22.4668 8.96328C22.4668 7.55636 21.3542 6.41553 19.9821 6.41553C18.6101 6.41553 17.4975 7.55636 17.4975 8.96328C17.4975 10.3702 18.6101 11.511 19.9821 11.511Z" fill="url(#paint12_linear_112_2004)"/>
</g>
<path d="M15.4515 10.096C15.7616 10.096 16.059 9.97667 16.2782 9.76432C16.4975 9.55196 16.6207 9.26395 16.6207 8.96363C16.6207 8.66332 16.4975 8.37531 16.2782 8.16295C16.059 7.9506 15.7616 7.8313 15.4515 7.8313C15.1414 7.8313 14.844 7.9506 14.6247 8.16295C14.4054 8.37531 14.2822 8.66332 14.2822 8.96363C14.2822 9.26395 14.4054 9.55196 14.6247 9.76432C14.844 9.97667 15.1414 10.096 15.4515 10.096ZM19.2514 10.096C19.5615 10.096 19.8589 9.97667 20.0782 9.76432C20.2975 9.55196 20.4207 9.26395 20.4207 8.96363C20.4207 8.66332 20.2975 8.37531 20.0782 8.16295C19.8589 7.9506 19.5615 7.8313 19.2514 7.8313C18.9413 7.8313 18.6439 7.9506 18.4247 8.16295C18.2054 8.37531 18.0822 8.66332 18.0822 8.96363C18.0822 9.26395 18.2054 9.55196 18.4247 9.76432C18.6439 9.97667 18.9413 10.096 19.2514 10.096Z" fill="#2A2A2A"/>
<ellipse cx="14.9554" cy="8.48115" rx="0.238631" ry="0.233839" fill="white"/>
<ellipse cx="18.8099" cy="8.48115" rx="0.238631" ry="0.233839" fill="white"/>
<g filter="url(#filter5_d_112_2004)">
<path d="M16.3047 11.2058H18.6786L18.3546 12.7655C18.2696 13.1744 17.9093 13.4676 17.4917 13.4676C17.074 13.4676 16.7137 13.1744 16.6287 12.7655L16.3047 11.2058Z" fill="#E6BE10"/>
<path d="M16.5908 10.8933H18.5102L18.2782 12.4649C18.2225 12.842 17.8989 13.1213 17.5177 13.1213C17.1244 13.1213 16.7945 12.8244 16.7532 12.4332L16.5908 10.8933Z" fill="#6D540B"/>
<g filter="url(#filter6_i_112_2004)">
<path fill-rule="evenodd" clip-rule="evenodd" d="M18.3313 12.1411L18.2673 12.5484C18.2084 12.9231 17.8856 13.1991 17.5063 13.1991C17.1128 13.1991 16.7826 12.9025 16.7405 12.5113L16.7002 12.1373C16.7814 12.0919 16.8706 12.0668 16.9642 12.0668C17.1995 12.0668 17.4069 12.2253 17.5287 12.4659C17.6436 12.2219 17.8412 12.0608 18.0656 12.0608C18.1604 12.0608 18.2503 12.0895 18.3313 12.1411Z" fill="#E8463A"/>
</g>
<g filter="url(#filter7_i_112_2004)">
<path d="M18.6691 11.0363C18.7125 11.1499 18.7226 11.3309 18.6094 11.3751C18.0686 11.376 18.2505 11.6572 17.4912 11.6572C16.7319 11.6572 16.994 11.3751 16.3772 11.3751C16.2972 11.3439 16.2762 11.2478 16.3051 11.1669C16.5339 10.5255 16.8498 10.0823 17.4912 10.0823C18.1138 10.0823 18.44 10.4368 18.6691 11.0363Z" fill="url(#paint13_linear_112_2004)"/>
</g>
</g>
<path d="M19.956 5.77438C20.4071 5.75569 20.8376 5.89469 21.2323 6.13729C21.3862 6.23192 21.5306 6.34044 21.6634 6.46142L21.6716 6.46907C21.688 6.48463 21.6997 6.49596 21.7061 6.50275C21.7499 6.54776 21.7493 6.62023 21.7046 6.66468C21.6946 6.67486 21.6825 6.68301 21.6691 6.68863C21.6558 6.69425 21.6414 6.69725 21.6269 6.69743C21.6123 6.69761 21.5978 6.69499 21.5844 6.68971C21.5709 6.68442 21.5586 6.67659 21.5482 6.66666L21.5389 6.65703C21.5049 6.62425 21.4699 6.59262 21.4337 6.5622C21.3335 6.4782 21.227 6.40156 21.115 6.3329C20.7555 6.1121 20.3667 5.98641 19.9654 6.00311C19.4451 6.02491 18.9371 6.28534 18.451 6.84075L18.429 6.86567C18.4196 6.87692 18.4079 6.88619 18.3946 6.89291C18.3814 6.89962 18.3668 6.90363 18.3519 6.90469C18.337 6.90575 18.322 6.90384 18.3079 6.89907C18.2937 6.89431 18.2807 6.88679 18.2697 6.87699C18.2469 6.8565 18.2331 6.82835 18.231 6.79831C18.229 6.76826 18.2388 6.73858 18.2586 6.71535L18.2817 6.68874C18.8073 6.08832 19.3723 5.79872 19.956 5.77438ZM13.7679 6.13729C14.1625 5.89469 14.5928 5.75569 15.0441 5.77438C15.6279 5.79872 16.1929 6.08832 16.7184 6.68874L16.7415 6.71535C16.7612 6.73856 16.7711 6.76818 16.769 6.79816C16.7669 6.82814 16.7531 6.85623 16.7304 6.87671C16.7194 6.88653 16.7065 6.89406 16.6923 6.89885C16.6782 6.90364 16.6632 6.90557 16.6483 6.90454C16.6334 6.9035 16.6188 6.89952 16.6056 6.89284C16.5923 6.88615 16.5806 6.8769 16.5711 6.86567L16.5492 6.84075C16.0631 6.28534 15.5548 6.02491 15.0351 6.00311C14.6334 5.98641 14.2447 6.1121 13.8851 6.3329C13.7732 6.40156 13.6667 6.4782 13.5665 6.5622L13.5478 6.57834C13.5262 6.59674 13.5069 6.614 13.4896 6.63014L13.4823 6.63693C13.4764 6.64245 13.4706 6.64802 13.4648 6.65364L13.4554 6.66298C13.4453 6.67367 13.433 6.68224 13.4193 6.68815C13.4056 6.69407 13.3908 6.6972 13.3759 6.69736C13.3609 6.69752 13.346 6.6947 13.3322 6.68908C13.3184 6.68346 13.3059 6.67515 13.2955 6.66468C13.2741 6.64292 13.262 6.61407 13.2617 6.58399C13.2615 6.55392 13.273 6.52487 13.2941 6.50275L13.3049 6.492C13.3428 6.45539 13.382 6.42008 13.4224 6.38612C13.5232 6.3012 13.6387 6.21627 13.7679 6.13701V6.13729Z" fill="#2A2A2A"/>
<g filter="url(#filter8_ii_112_2004)">
<path d="M10.7917 15.2053C10.7201 14.849 10.9926 14.5164 11.356 14.5164H23.681C24.0444 14.5164 24.3169 14.849 24.2454 15.2053L23.4681 19.0748C23.3601 19.6124 22.8878 19.9992 22.3394 19.9992H12.6976C12.1493 19.9992 11.677 19.6124 11.569 19.0748L10.7917 15.2053Z" fill="#12B3FF"/>
</g>
<path d="M17.1514 16.3132C17.1514 16.1104 17.3157 15.946 17.5185 15.946C17.7212 15.946 17.8856 16.1104 17.8856 16.3132V18.7905C17.8856 18.9932 17.7212 19.1576 17.5185 19.1576C17.3157 19.1576 17.1514 18.9932 17.1514 18.7905V16.3132Z" fill="url(#paint14_linear_112_2004)"/>
<path d="M19.5753 16.2694C19.5963 16.0852 19.7523 15.946 19.9377 15.946C20.1555 15.946 20.3248 16.1358 20.3001 16.3522L20.0163 18.8343C19.9953 19.0185 19.8394 19.1576 19.6539 19.1576C19.4361 19.1576 19.2668 18.9678 19.2915 18.7514L19.5753 16.2694Z" fill="url(#paint15_linear_112_2004)"/>
<path d="M15.4286 16.2694C15.4076 16.0852 15.2517 15.946 15.0662 15.946C14.8484 15.946 14.6791 16.1358 14.7038 16.3522L14.9876 18.8343C15.0086 19.0185 15.1646 19.1576 15.35 19.1576C15.5678 19.1576 15.7371 18.9678 15.7124 18.7514L15.4286 16.2694Z" fill="url(#paint16_linear_112_2004)"/>
<path d="M21.9093 16.2467C21.9391 16.073 22.0897 15.946 22.2659 15.946C22.4902 15.946 22.6605 16.148 22.6226 16.369L22.196 18.8569C22.1662 19.0306 22.0156 19.1576 21.8393 19.1576C21.615 19.1576 21.4448 18.9556 21.4827 18.7346L21.9093 16.2467Z" fill="url(#paint17_linear_112_2004)"/>
<path d="M13.1093 16.2467C13.0795 16.073 12.9289 15.946 12.7526 15.946C12.5284 15.946 12.3581 16.148 12.396 16.369L12.8226 18.8569C12.8524 19.0306 13.003 19.1576 13.1792 19.1576C13.4035 19.1576 13.5738 18.9556 13.5359 18.7346L13.1093 16.2467Z" fill="url(#paint18_linear_112_2004)"/>
<g filter="url(#filter9_ii_112_2004)">
<rect x="9.73535" y="13.7969" width="15.5293" height="1.22316" rx="0.611579" fill="#2CBCFF"/>
</g>
<g filter="url(#filter10_i_112_2004)">
<path d="M13.0216 14.2564C13.1089 14.0853 13.3195 14.015 13.4921 14.0995L13.5023 14.1046C13.6748 14.1891 13.7439 14.3963 13.6566 14.5674L11.3464 19.0964C11.2591 19.2675 11.0484 19.3377 10.8759 19.2532L10.8657 19.2482C10.6932 19.1637 10.6241 18.9564 10.7114 18.7853L13.0216 14.2564Z" fill="url(#paint19_linear_112_2004)"/>
</g>
<g filter="url(#filter11_i_112_2004)">
<path d="M22.0749 14.2623C21.9893 14.0903 21.7794 14.0181 21.6061 14.1009L21.5957 14.1059C21.4224 14.1887 21.3513 14.3953 21.4368 14.5673L23.7019 19.118C23.7875 19.29 23.9973 19.3622 24.1707 19.2794L24.1811 19.2744C24.3544 19.1916 24.4255 18.985 24.3399 18.813L22.0749 14.2623Z" fill="url(#paint20_linear_112_2004)"/>
</g>
<ellipse cx="13.3328" cy="14.4084" rx="0.293699" ry="0.287802" fill="#43494C"/>
<ellipse cx="21.7585" cy="14.4084" rx="0.293699" ry="0.287802" fill="#43494C"/>
<path d="M36.7835 17.4994C36.5089 17.4994 36.2837 17.4197 36.1079 17.2602C35.9431 17.0904 35.8609 16.8563 35.8609 16.559V12.8289C35.8609 12.3292 35.7345 11.9256 35.4818 11.6173C35.24 11.309 34.8666 11.155 34.3615 11.155C33.8674 11.155 33.488 11.309 33.2247 11.6173C32.9716 11.9256 32.8456 12.3292 32.8456 12.8289V16.559C32.8456 16.8563 32.7574 17.0904 32.5816 17.2602C32.4168 17.4197 32.1972 17.4994 31.9226 17.4994C31.648 17.4994 31.4228 17.4197 31.2474 17.2602C31.0826 17.0904 31 16.8563 31 16.559V7.44077C31 7.14345 31.0826 6.91487 31.2471 6.75539C31.4228 6.58524 31.648 6.50034 31.9226 6.50034C32.1972 6.50034 32.4168 6.58524 32.5816 6.75539C32.7577 6.91487 32.8456 7.14345 32.8456 7.44077V10.4535H32.8622C33.0704 10.1775 33.3507 9.95956 33.7022 9.80007C34.0647 9.64058 34.4822 9.56084 34.9545 9.56084C35.383 9.56084 35.7617 9.63543 36.0914 9.78426C36.432 9.92244 36.7231 10.119 36.9649 10.3741C37.2105 10.6357 37.3958 10.9455 37.5085 11.2825C37.6405 11.6228 37.7061 11.9999 37.7061 12.4144V16.559C37.7061 16.8563 37.6182 17.0904 37.4425 17.2602C37.278 17.4197 37.0581 17.4994 36.7835 17.4994ZM45.5999 6.50034C45.8766 6.50034 46.0983 6.58456 46.2642 6.75332C46.4414 6.91143 46.5299 7.1376 46.5299 7.43286V16.4717C46.5299 16.767 46.4417 16.9986 46.2642 17.1671C46.0983 17.3252 45.8766 17.4042 45.5999 17.4042C45.3228 17.4042 45.1068 17.3307 44.9522 17.1829C44.8079 17.0354 44.714 16.8405 44.6699 16.5985H44.6529C44.4648 16.8618 44.199 17.0777 43.8556 17.2461C43.5125 17.4145 43.0587 17.4991 42.4936 17.4991C41.8293 17.4991 41.2589 17.3307 40.7832 16.9935C40.3067 16.6456 39.9636 16.1716 39.7532 15.5712C39.6526 15.2727 39.5803 14.9658 39.5372 14.6545C39.4928 14.3279 39.4709 13.9484 39.4709 13.5167C39.4709 13.0847 39.4928 12.7107 39.5372 12.3945C39.5814 12.0679 39.6534 11.7572 39.7532 11.4623C39.9636 10.8618 40.3067 10.393 40.7832 10.0558C41.2589 9.70795 41.8293 9.53437 42.4936 9.53437C43.0583 9.53437 43.5126 9.62374 43.856 9.80282C44.2103 9.9819 44.4758 10.1926 44.6529 10.4353H44.6695V7.43252C44.6695 7.13726 44.7528 6.91075 44.9187 6.75298C45.0959 6.58456 45.3228 6.5 45.5999 6.5V6.50034ZM43.1688 10.9687C42.8285 10.9687 42.5359 11.0478 42.291 11.2059C42.0464 11.3537 41.8653 11.6125 41.7481 11.9817C41.6423 12.2982 41.5886 12.7626 41.5886 13.3748C41.5886 13.9866 41.6419 14.4513 41.7481 14.7679C41.8653 15.137 42.0464 15.401 42.291 15.5591C42.5359 15.7069 42.8285 15.7808 43.1688 15.7808C43.5097 15.7808 43.8023 15.7069 44.0469 15.5591C44.3025 15.401 44.4885 15.137 44.6056 14.7679C44.7122 14.4513 44.7652 13.9869 44.7652 13.3748C44.7652 12.763 44.7122 12.2982 44.6056 11.9817C44.4885 11.6125 44.3021 11.354 44.0469 11.2062C43.8023 11.0481 43.5097 10.9687 43.1688 10.9687Z" fill="#2D2D2D"/>
<path d="M48.6465 10.6263C48.6465 10.33 48.7294 10.1025 48.8957 9.94369C49.0721 9.77424 49.2991 9.68968 49.5758 9.68968C49.8522 9.68968 50.0622 9.76393 50.2062 9.91207C50.3608 10.0599 50.4603 10.2506 50.5048 10.4833H50.5214C50.6982 10.24 50.9583 10.0337 51.3014 9.86464C51.6554 9.68453 52.0977 9.59447 52.6285 9.59447C53.1043 9.59447 53.5247 9.68453 53.8896 9.86429C54.2608 10.0297 54.5811 10.2869 54.8186 10.6102H54.8352C55.1411 10.2953 55.5074 10.0419 55.9134 9.86429C56.3229 9.68453 56.8152 9.59447 57.3902 9.59447C57.855 9.59447 58.2641 9.66837 58.6185 9.81686C58.9831 9.95435 59.2873 10.1503 59.5309 10.4039C59.7866 10.6602 59.9795 10.9697 60.0949 11.309C60.2276 11.6475 60.2939 12.0232 60.2939 12.4364V16.5634C60.2939 16.8597 60.2057 17.0928 60.0285 17.2619C59.8626 17.4207 59.6413 17.5001 59.365 17.5001C59.0883 17.5001 58.8617 17.421 58.6845 17.2619C58.5186 17.0928 58.4356 16.8597 58.4356 16.5634V12.8488C58.4356 12.3515 58.3086 11.9493 58.0538 11.6424C57.7996 11.3354 57.4234 11.1818 56.9257 11.1818C56.4386 11.1818 56.0627 11.3354 55.7977 11.6424C55.5323 11.9493 55.3992 12.3515 55.3992 12.8488V16.5634C55.3992 16.8597 55.311 17.0928 55.1338 17.2619C54.9679 17.4207 54.7469 17.5001 54.4702 17.5001C54.1935 17.5001 53.9669 17.421 53.7901 17.2619C53.6242 17.0928 53.5412 16.8597 53.5412 16.5634V12.8488C53.5412 12.3515 53.4142 11.9493 53.1593 11.6424C52.9052 11.3354 52.529 11.1818 52.0313 11.1818C51.5442 11.1818 51.1683 11.3354 50.9033 11.6424C50.6375 11.9493 50.5048 12.3515 50.5048 12.8488V16.5634C50.5048 16.8597 50.4165 17.0928 50.2394 17.2619C50.0735 17.4207 49.8522 17.5001 49.5758 17.5001C49.2991 17.5001 49.0725 17.421 48.8957 17.2619C48.7298 17.0928 48.6465 16.8597 48.6465 16.5634V10.6263ZM68.9724 16.0726C69.0691 16.2503 69.1178 16.4232 69.1178 16.5902C69.1178 16.8308 69.0317 17.0295 68.8591 17.1863C68.6868 17.3327 68.4715 17.4062 68.2132 17.4062C67.8793 17.4062 67.6262 17.2859 67.454 17.0453L67.1956 16.6686H67.1794C66.9535 16.9298 66.6464 17.134 66.2585 17.2804C65.871 17.4269 65.4132 17.5001 64.8855 17.5001C63.9594 17.5001 63.2542 17.3014 62.7696 16.9041C62.2955 16.4961 62.0587 15.9313 62.0587 15.2099C62.0587 14.3942 62.3337 13.7879 62.8825 13.3905C63.4317 12.9932 64.1909 12.7945 65.1601 12.7945H66.759C66.8239 12.7945 66.8564 12.7629 66.8564 12.7003V12.512C66.8564 12.0727 66.7163 11.7331 66.4364 11.4925C66.1671 11.2416 65.7255 11.1161 65.1118 11.1161C64.8319 11.1161 64.5679 11.1471 64.3201 11.21C64.0727 11.2729 63.8627 11.3461 63.6901 11.4299C63.5288 11.4925 63.3724 11.5238 63.2217 11.5238C63.0064 11.5238 62.8289 11.4612 62.6887 11.3354C62.549 11.1997 62.4787 11.0219 62.4787 10.8023C62.4787 10.6769 62.5112 10.5514 62.5758 10.4259C62.651 10.3005 62.7696 10.1956 62.9312 10.1121C63.1786 9.96569 63.5019 9.84539 63.9004 9.75121C64.2989 9.64672 64.7673 9.59447 65.3052 9.59447C66.4149 9.59447 67.233 9.85054 67.7607 10.363C68.2993 10.8649 68.5686 11.5867 68.5686 12.5278V14.9118C68.5686 15.1105 68.5792 15.2624 68.6007 15.3669C68.6332 15.4608 68.6762 15.5601 68.7299 15.6649L68.9724 16.0726ZM65.2275 16.1252C65.7739 16.1252 66.2031 16.0207 66.5151 15.8117C66.8384 15.6027 67.0001 15.2893 67.0001 14.8713V14.1618C67.0001 14.0958 66.9665 14.0629 66.8995 14.0629H65.5618C64.9378 14.0629 64.4923 14.1508 64.2244 14.3268C63.9572 14.5028 63.8235 14.7723 63.8235 15.1353C63.8235 15.7952 64.2915 16.1252 65.2275 16.1252ZM73.0003 17.5001C72.2093 17.5001 71.658 17.309 71.3484 16.9271C71.0371 16.5445 70.8825 15.9877 70.8825 15.2556V7.44002C70.8825 7.14305 70.9627 6.91482 71.1229 6.75567C71.2941 6.58588 71.5133 6.50098 71.7808 6.50098C72.0374 6.50098 72.2517 6.58588 72.4225 6.75567C72.5937 6.91482 72.6791 7.14305 72.6791 7.44002V15.1126C72.6791 15.3882 72.7274 15.5845 72.8238 15.7014C72.9201 15.8076 73.0804 15.8767 73.3049 15.9083C73.5724 15.9403 73.7651 16.0303 73.8826 16.1788C74.0002 16.317 74.0591 16.4868 74.0591 16.6882C74.0591 16.9219 73.9843 17.1178 73.8343 17.2773C73.6846 17.4258 73.4496 17.5001 73.1284 17.5001H73.0003ZM77.9416 17.5001C77.1503 17.5001 76.5993 17.309 76.2891 16.9271C75.9792 16.5445 75.8239 15.9877 75.8239 15.2556V7.44002C75.8239 7.14305 75.904 6.91482 76.0643 6.75567C76.2354 6.58588 76.4546 6.50098 76.7222 6.50098C76.9791 6.50098 77.193 6.58588 77.3638 6.75567C77.535 6.91482 77.6208 7.14305 77.6208 7.44002V15.1126C77.6208 15.3882 77.6688 15.5845 77.7655 15.7014C77.8615 15.8076 78.0217 15.8767 78.2466 15.9083C78.5137 15.9403 78.7065 16.0303 78.824 16.1788C78.9415 16.317 79.0005 16.4868 79.0005 16.6882C79.0005 16.9219 78.9256 17.1178 78.7756 17.2773C78.6263 17.4258 78.3909 17.5001 78.0697 17.5001H77.9416Z" fill="#2BA8E0"/>
<defs>
<filter id="filter0_ii_112_2004" x="22.6152" y="5.28555" width="4.55868" height="9.25271" filterUnits="userSpaceOnUse" color-interpolation-filters="sRGB">
<feFlood flood-opacity="0" result="BackgroundImageFix"/>
<feBlend mode="normal" in="SourceGraphic" in2="BackgroundImageFix" result="shape"/>
<feColorMatrix in="SourceAlpha" type="matrix" values="0 0 0 0 0 0 0 0 0 0 0 0 0 0 0 0 0 0 127 0" result="hardAlpha"/>
<feOffset dy="-0.695655"/>
<feGaussianBlur stdDeviation="0.521741"/>
<feComposite in2="hardAlpha" operator="arithmetic" k2="-1" k3="1"/>
<feColorMatrix type="matrix" values="0 0 0 0 0.101523 0 0 0 0 0.635189 0 0 0 0 0.529959 0 0 0 1 0"/>
<feBlend mode="normal" in2="shape" result="effect1_innerShadow_112_2004"/>
<feColorMatrix in="SourceAlpha" type="matrix" values="0 0 0 0 0 0 0 0 0 0 0 0 0 0 0 0 0 0 127 0" result="hardAlpha"/>
<feOffset dx="0.173914" dy="0.347827"/>
<feGaussianBlur stdDeviation="0.260871"/>
<feComposite in2="hardAlpha" operator="arithmetic" k2="-1" k3="1"/>
<feColorMatrix type="matrix" values="0 0 0 0 0.329412 0 0 0 0 0.894118 0 0 0 0 0.815686 0 0 0 1 0"/>
<feBlend mode="normal" in2="effect1_innerShadow_112_2004" result="effect2_innerShadow_112_2004"/>
</filter>
<filter id="filter1_f_112_2004" x="22.6082" y="9.50642" width="1.31968" height="5.08066" filterUnits="userSpaceOnUse" color-interpolation-filters="sRGB">
<feFlood flood-opacity="0" result="BackgroundImageFix"/>
<feBlend mode="normal" in="SourceGraphic" in2="BackgroundImageFix" result="shape"/>
<feGaussianBlur stdDeviation="0.173914" result="effect1_foregroundBlur_112_2004"/>
</filter>
<filter id="filter2_ii_112_2004" x="8" y="5.28555" width="4.55868" height="9.25271" filterUnits="userSpaceOnUse" color-interpolation-filters="sRGB">
<feFlood flood-opacity="0" result="BackgroundImageFix"/>
<feBlend mode="normal" in="SourceGraphic" in2="BackgroundImageFix" result="shape"/>
<feColorMatrix in="SourceAlpha" type="matrix" values="0 0 0 0 0 0 0 0 0 0 0 0 0 0 0 0 0 0 127 0" result="hardAlpha"/>
<feOffset dy="-0.695655"/>
<feGaussianBlur stdDeviation="0.521741"/>
<feComposite in2="hardAlpha" operator="arithmetic" k2="-1" k3="1"/>
<feColorMatrix type="matrix" values="0 0 0 0 0.101523 0 0 0 0 0.635189 0 0 0 0 0.529959 0 0 0 1 0"/>
<feBlend mode="normal" in2="shape" result="effect1_innerShadow_112_2004"/>
<feColorMatrix in="SourceAlpha" type="matrix" values="0 0 0 0 0 0 0 0 0 0 0 0 0 0 0 0 0 0 127 0" result="hardAlpha"/>
<feOffset dx="0.173914" dy="0.347827"/>
<feGaussianBlur stdDeviation="0.260871"/>
<feComposite in2="hardAlpha" operator="arithmetic" k2="-1" k3="1"/>
<feColorMatrix type="matrix" values="0 0 0 0 0.329412 0 0 0 0 0.894118 0 0 0 0 0.815686 0 0 0 1 0"/>
<feBlend mode="normal" in2="effect1_innerShadow_112_2004" result="effect2_innerShadow_112_2004"/>
</filter>
<filter id="filter3_f_112_2004" x="11.16" y="9.24568" width="1.31968" height="5.08066" filterUnits="userSpaceOnUse" color-interpolation-filters="sRGB">
<feFlood flood-opacity="0" result="BackgroundImageFix"/>
<feBlend mode="normal" in="SourceGraphic" in2="BackgroundImageFix" result="shape"/>
<feGaussianBlur stdDeviation="0.173914" result="effect1_foregroundBlur_112_2004"/>
</filter>
<filter id="filter4_d_112_2004" x="12.0066" y="6.0677" width="10.982" height="6.13894" filterUnits="userSpaceOnUse" color-interpolation-filters="sRGB">
<feFlood flood-opacity="0" result="BackgroundImageFix"/>
<feColorMatrix in="SourceAlpha" type="matrix" values="0 0 0 0 0 0 0 0 0 0 0 0 0 0 0 0 0 0 127 0" result="hardAlpha"/>
<feOffset dy="0.173914"/>
<feGaussianBlur stdDeviation="0.260871"/>
<feComposite in2="hardAlpha" operator="out"/>
<feColorMatrix type="matrix" values="0 0 0 0 0.152941 0 0 0 0 0.156863 0 0 0 0 0.160784 0 0 0 0.12 0"/>
<feBlend mode="normal" in2="BackgroundImageFix" result="effect1_dropShadow_112_2004"/>
<feBlend mode="normal" in="SourceGraphic" in2="effect1_dropShadow_112_2004" result="shape"/>
</filter>
<filter id="filter5_d_112_2004" x="15.7712" y="9.73445" width="3.44973" height="4.42874" filterUnits="userSpaceOnUse" color-interpolation-filters="sRGB">
<feFlood flood-opacity="0" result="BackgroundImageFix"/>
<feColorMatrix in="SourceAlpha" type="matrix" values="0 0 0 0 0 0 0 0 0 0 0 0 0 0 0 0 0 0 127 0" result="hardAlpha"/>
<feOffset dy="0.173914"/>
<feGaussianBlur stdDeviation="0.260871"/>
<feComposite in2="hardAlpha" operator="out"/>
<feColorMatrix type="matrix" values="0 0 0 0 0.152941 0 0 0 0 0.156863 0 0 0 0 0.160784 0 0 0 0.24 0"/>
<feBlend mode="normal" in2="BackgroundImageFix" result="effect1_dropShadow_112_2004"/>
<feBlend mode="normal" in="SourceGraphic" in2="effect1_dropShadow_112_2004" result="shape"/>
</filter>
<filter id="filter6_i_112_2004" x="16.7002" y="11.9738" width="1.63086" height="1.22538" filterUnits="userSpaceOnUse" color-interpolation-filters="sRGB">
<feFlood flood-opacity="0" result="BackgroundImageFix"/>
<feBlend mode="normal" in="SourceGraphic" in2="BackgroundImageFix" result="shape"/>
<feColorMatrix in="SourceAlpha" type="matrix" values="0 0 0 0 0 0 0 0 0 0 0 0 0 0 0 0 0 0 127 0" result="hardAlpha"/>
<feOffset dy="-0.0869569"/>
<feGaussianBlur stdDeviation="0.0869569"/>
<feComposite in2="hardAlpha" operator="arithmetic" k2="-1" k3="1"/>
<feColorMatrix type="matrix" values="0 0 0 0 0.776471 0 0 0 0 0.168627 0 0 0 0 0.188235 0 0 0 1 0"/>
<feBlend mode="normal" in2="shape" result="effect1_innerShadow_112_2004"/>
</filter>
<filter id="filter7_i_112_2004" x="16.2495" y="10.0388" width="2.44973" height="1.61843" filterUnits="userSpaceOnUse" color-interpolation-filters="sRGB">
<feFlood flood-opacity="0" result="BackgroundImageFix"/>
<feBlend mode="normal" in="SourceGraphic" in2="BackgroundImageFix" result="shape"/>
<feColorMatrix in="SourceAlpha" type="matrix" values="0 0 0 0 0 0 0 0 0 0 0 0 0 0 0 0 0 0 127 0" result="hardAlpha"/>
<feOffset dx="-0.0434784" dy="-0.0434784"/>
<feGaussianBlur stdDeviation="0.130435"/>
<feComposite in2="hardAlpha" operator="arithmetic" k2="-1" k3="1"/>
<feColorMatrix type="matrix" values="0 0 0 0 0.8 0 0 0 0 0.572668 0 0 0 0 0.0411589 0 0 0 1 0"/>
<feBlend mode="normal" in2="shape" result="effect1_innerShadow_112_2004"/>
</filter>
<filter id="filter8_ii_112_2004" x="10.7803" y="14.1685" width="13.4766" height="6.17857" filterUnits="userSpaceOnUse" color-interpolation-filters="sRGB">
<feFlood flood-opacity="0" result="BackgroundImageFix"/>
<feBlend mode="normal" in="SourceGraphic" in2="BackgroundImageFix" result="shape"/>
<feColorMatrix in="SourceAlpha" type="matrix" values="0 0 0 0 0 0 0 0 0 0 0 0 0 0 0 0 0 0 127 0" result="hardAlpha"/>
<feOffset dy="-0.347827"/>
<feGaussianBlur stdDeviation="0.434784"/>
<feComposite in2="hardAlpha" operator="arithmetic" k2="-1" k3="1"/>
<feColorMatrix type="matrix" values="0 0 0 0 0.0517241 0 0 0 0 0.52694 0 0 0 0 0.75 0 0 0 1 0"/>
<feBlend mode="normal" in2="shape" result="effect1_innerShadow_112_2004"/>
<feColorMatrix in="SourceAlpha" type="matrix" values="0 0 0 0 0 0 0 0 0 0 0 0 0 0 0 0 0 0 127 0" result="hardAlpha"/>
<feOffset dy="0.347827"/>
<feGaussianBlur stdDeviation="0.434784"/>
<feComposite in2="hardAlpha" operator="arithmetic" k2="-1" k3="1"/>
<feColorMatrix type="matrix" values="0 0 0 0 0.054902 0 0 0 0 0.54902 0 0 0 0 0.784314 0 0 0 1 0"/>
<feBlend mode="normal" in2="effect1_innerShadow_112_2004" result="effect2_innerShadow_112_2004"/>
</filter>
<filter id="filter9_ii_112_2004" x="9.73535" y="13.623" width="15.5293" height="1.57097" filterUnits="userSpaceOnUse" color-interpolation-filters="sRGB">
<feFlood flood-opacity="0" result="BackgroundImageFix"/>
<feBlend mode="normal" in="SourceGraphic" in2="BackgroundImageFix" result="shape"/>
<feColorMatrix in="SourceAlpha" type="matrix" values="0 0 0 0 0 0 0 0 0 0 0 0 0 0 0 0 0 0 127 0" result="hardAlpha"/>
<feOffset dy="-0.173914"/>
<feGaussianBlur stdDeviation="0.260871"/>
<feComposite in2="hardAlpha" operator="arithmetic" k2="-1" k3="1"/>
<feColorMatrix type="matrix" values="0 0 0 0 0.0548022 0 0 0 0 0.499898 0 0 0 0 0.711849 0 0 0 1 0"/>
<feBlend mode="normal" in2="shape" result="effect1_innerShadow_112_2004"/>
<feColorMatrix in="SourceAlpha" type="matrix" values="0 0 0 0 0 0 0 0 0 0 0 0 0 0 0 0 0 0 127 0" result="hardAlpha"/>
<feOffset dy="0.173914"/>
<feGaussianBlur stdDeviation="0.260871"/>
<feComposite in2="hardAlpha" operator="arithmetic" k2="-1" k3="1"/>
<feColorMatrix type="matrix" values="0 0 0 0 0.558984 0 0 0 0 0.860345 0 0 0 0 1 0 0 0 1 0"/>
<feBlend mode="normal" in2="effect1_innerShadow_112_2004" result="effect2_innerShadow_112_2004"/>
</filter>
<filter id="filter10_i_112_2004" x="10.6738" y="13.9768" width="3.02051" height="5.3123" filterUnits="userSpaceOnUse" color-interpolation-filters="sRGB">
<feFlood flood-opacity="0" result="BackgroundImageFix"/>
<feBlend mode="normal" in="SourceGraphic" in2="BackgroundImageFix" result="shape"/>
<feColorMatrix in="SourceAlpha" type="matrix" values="0 0 0 0 0 0 0 0 0 0 0 0 0 0 0 0 0 0 127 0" result="hardAlpha"/>
<feOffset dy="-0.0869569"/>
<feGaussianBlur stdDeviation="0.0869569"/>
<feComposite in2="hardAlpha" operator="arithmetic" k2="-1" k3="1"/>
<feColorMatrix type="matrix" values="0 0 0 0 0.0856471 0 0 0 0 0.0967948 0 0 0 0 0.101961 0 0 0 0.16 0"/>
<feBlend mode="normal" in2="shape" result="effect1_innerShadow_112_2004"/>
</filter>
<filter id="filter11_i_112_2004" x="21.4004" y="13.9797" width="2.97559" height="5.33403" filterUnits="userSpaceOnUse" color-interpolation-filters="sRGB">
<feFlood flood-opacity="0" result="BackgroundImageFix"/>
<feBlend mode="normal" in="SourceGraphic" in2="BackgroundImageFix" result="shape"/>
<feColorMatrix in="SourceAlpha" type="matrix" values="0 0 0 0 0 0 0 0 0 0 0 0 0 0 0 0 0 0 127 0" result="hardAlpha"/>
<feOffset dy="-0.0869569"/>
<feGaussianBlur stdDeviation="0.0869569"/>
<feComposite in2="hardAlpha" operator="arithmetic" k2="-1" k3="1"/>
<feColorMatrix type="matrix" values="0 0 0 0 0.0856471 0 0 0 0 0.0967948 0 0 0 0 0.101961 0 0 0 0.16 0"/>
<feBlend mode="normal" in2="shape" result="effect1_innerShadow_112_2004"/>
</filter>
<linearGradient id="paint0_linear_112_2004" x1="15.9519" y1="18.789" x2="16.8696" y2="19.0588" gradientUnits="userSpaceOnUse">
<stop stop-color="#FFD312"/>
<stop offset="1" stop-color="#F0A800"/>
</linearGradient>
<linearGradient id="paint1_linear_112_2004" x1="14.9978" y1="18.789" x2="15.9155" y2="19.0588" gradientUnits="userSpaceOnUse">
<stop stop-color="#FFD312"/>
<stop offset="1" stop-color="#F0A800"/>
</linearGradient>
<linearGradient id="paint2_linear_112_2004" x1="15.3925" y1="18.7269" x2="16.4721" y2="19.0444" gradientUnits="userSpaceOnUse">
<stop stop-color="#FFD312"/>
<stop offset="1" stop-color="#F0A800"/>
</linearGradient>
<linearGradient id="paint3_linear_112_2004" x1="19.5134" y1="18.789" x2="20.4311" y2="19.0588" gradientUnits="userSpaceOnUse">
<stop stop-color="#FFD312"/>
<stop offset="1" stop-color="#F0A800"/>
</linearGradient>
<linearGradient id="paint4_linear_112_2004" x1="18.5593" y1="18.789" x2="19.477" y2="19.0588" gradientUnits="userSpaceOnUse">
<stop stop-color="#FFD312"/>
<stop offset="1" stop-color="#F0A800"/>
</linearGradient>
<linearGradient id="paint5_linear_112_2004" x1="18.9541" y1="18.7269" x2="20.0337" y2="19.0444" gradientUnits="userSpaceOnUse">
<stop stop-color="#FFD312"/>
<stop offset="1" stop-color="#F0A800"/>
</linearGradient>
<linearGradient id="paint6_linear_112_2004" x1="23.5145" y1="6.54721" x2="26.2834" y2="12.999" gradientUnits="userSpaceOnUse">
<stop stop-color="#60E8D5"/>
<stop offset="1" stop-color="#2CBEA7"/>
</linearGradient>
<linearGradient id="paint7_linear_112_2004" x1="8.89928" y1="6.54721" x2="11.6682" y2="12.999" gradientUnits="userSpaceOnUse">
<stop stop-color="#60E8D5"/>
<stop offset="1" stop-color="#2CBEA7"/>
</linearGradient>
<linearGradient id="paint8_linear_112_2004" x1="15.9096" y1="4.38708" x2="16.7753" y2="5.7418" gradientUnits="userSpaceOnUse">
<stop stop-color="#53E3CF"/>
<stop offset="1" stop-color="#2CB394"/>
</linearGradient>
<linearGradient id="paint9_linear_112_2004" x1="17.6635" y1="4.38709" x2="18.5292" y2="5.7418" gradientUnits="userSpaceOnUse">
<stop stop-color="#53E3CF"/>
<stop offset="1" stop-color="#2CB394"/>
</linearGradient>
<radialGradient id="paint10_radial_112_2004" cx="0" cy="0" r="1" gradientUnits="userSpaceOnUse" gradientTransform="translate(15.0143 9.06574) rotate(32.186) scale(9.27521 8.87192)">
<stop stop-color="#67E7D4"/>
<stop offset="1" stop-color="#17AA8F"/>
</radialGradient>
<linearGradient id="paint11_linear_112_2004" x1="17.5001" y1="12.9509" x2="17.5001" y2="15.9545" gradientUnits="userSpaceOnUse">
<stop stop-color="#0B907D" stop-opacity="0"/>
<stop offset="1" stop-color="#086E5F"/>
</linearGradient>
<linearGradient id="paint12_linear_112_2004" x1="17.4975" y1="8.96328" x2="17.4975" y2="11.3698" gradientUnits="userSpaceOnUse">
<stop stop-color="white"/>
<stop offset="1" stop-color="#E1E4E6"/>
</linearGradient>
<linearGradient id="paint13_linear_112_2004" x1="16.8104" y1="10.2877" x2="17.4753" y2="11.6678" gradientUnits="userSpaceOnUse">
<stop stop-color="#FFE3A2"/>
<stop offset="1" stop-color="#FFB812"/>
</linearGradient>
<linearGradient id="paint14_linear_112_2004" x1="17.5185" y1="15.946" x2="17.5185" y2="19.1576" gradientUnits="userSpaceOnUse">
<stop stop-color="#0C7DB3"/>
<stop offset="1" stop-color="#0F98D9"/>
</linearGradient>
<linearGradient id="paint15_linear_112_2004" x1="19.7958" y1="15.946" x2="19.7958" y2="19.1576" gradientUnits="userSpaceOnUse">
<stop stop-color="#0C7DB3"/>
<stop offset="1" stop-color="#0F98D9"/>
</linearGradient>
<linearGradient id="paint16_linear_112_2004" x1="15.2081" y1="15.946" x2="15.2081" y2="19.1576" gradientUnits="userSpaceOnUse">
<stop stop-color="#0C7DB3"/>
<stop offset="1" stop-color="#0F98D9"/>
</linearGradient>
<linearGradient id="paint17_linear_112_2004" x1="22.0526" y1="15.946" x2="22.0526" y2="19.1576" gradientUnits="userSpaceOnUse">
<stop stop-color="#0C7DB3"/>
<stop offset="1" stop-color="#0F98D9"/>
</linearGradient>
<linearGradient id="paint18_linear_112_2004" x1="12.9659" y1="15.946" x2="12.9659" y2="19.1576" gradientUnits="userSpaceOnUse">
<stop stop-color="#0C7DB3"/>
<stop offset="1" stop-color="#0F98D9"/>
</linearGradient>
<linearGradient id="paint19_linear_112_2004" x1="13.4972" y1="14.1021" x2="10.955" y2="19.2919" gradientUnits="userSpaceOnUse">
<stop stop-color="white"/>
<stop offset="1" stop-color="#D8E2E6"/>
</linearGradient>
<linearGradient id="paint20_linear_112_2004" x1="21.6009" y1="14.1034" x2="24.0925" y2="19.3167" gradientUnits="userSpaceOnUse">
<stop stop-color="white"/>
<stop offset="1" stop-color="#D8E2E6"/>
</linearGradient>
</defs>
</svg>
